<?xml version="1.0" encoding="UTF-8"?>
<svg id="Layer_2" data-name="Layer 2" xmlns="http://www.w3.org/2000/svg" xmlns:xlink="http://www.w3.org/1999/xlink" viewBox="0 0 30.12 30.12">
  <defs>
    <style>
      .cls-1 {
        fill: url(#linear-gradient-4);
      }

      .cls-2 {
        fill: url(#linear-gradient-3);
      }

      .cls-3 {
        fill: url(#linear-gradient-2);
      }

      .cls-4 {
        fill: url(#linear-gradient);
      }

      .cls-5 {
        fill: #fff;
      }
    </style>
    <linearGradient id="linear-gradient" x1="15.12" y1="19.93" x2="15.14" y2="19.93" gradientUnits="userSpaceOnUse">
      <stop offset="0" stop-color="#ff6838"/>
      <stop offset=".5" stop-color="#d1023c"/>
      <stop offset="1" stop-color="#8482ff"/>
    </linearGradient>
    <linearGradient id="linear-gradient-2" x1="7.17" y1="6.72" x2="23.85" y2="23.4" xlink:href="#linear-gradient"/>
    <linearGradient id="linear-gradient-3" x1="6.97" y1="6.93" x2="23.64" y2="23.6" xlink:href="#linear-gradient"/>
    <linearGradient id="linear-gradient-4" x1="7.38" y1="6.52" x2="24.05" y2="23.19" xlink:href="#linear-gradient"/>
  </defs>
  <g id="Layer_1-2" data-name="Layer 1">
    <circle class="cls-5" cx="15.06" cy="15.06" r="15.06"/>
    <g id="Colour_icon_left" data-name="Colour icon left">
      <polygon class="cls-4" points="15.14 19.94 15.12 19.94 15.12 19.92 15.14 19.94"/>
      <g>
        <path class="cls-3" d="M21.13,15.87v.03h0c0,1.94-.94,3.68-2.37,4.78h-.01s-.04.04-.06.05l-.8-.79-.29-.29.07-.04c1.17-.82,1.94-2.18,1.95-3.72,0-2.51-2.05-4.54-4.56-4.54s-4.51,2-4.56,4.47h-1.51c.05-3.31,2.75-5.98,6.07-5.98s6.05,2.71,6.07,6.04h0Z"/>
        <path class="cls-2" d="M19.55,22.25h-2.17l-2.31-2.31v-1.52c1.4,0,2.54-1.13,2.55-2.53,0-1.4-1.15-2.53-2.55-2.53s-2.5,1.1-2.54,2.47h-1.54c.04-2.22,1.86-4.01,4.08-4.01s4.07,1.82,4.09,4.06v.03c0,1.42-.74,2.67-1.85,3.39-.15.1-.3.18-.46.26l.66.66.06.06,1.98,1.98Z"/>
        <path class="cls-1" d="M23.1,15.9h0c0,2.5-1.15,4.73-2.94,6.21-.04.03-.06.05-.06.05l-1.08-1.08s.06-.05.06-.05c1.52-1.19,2.5-3.05,2.5-5.13,0-3.6-2.93-6.52-6.53-6.52s-6.48,2.88-6.52,6.44h-1.51c.05-4.39,3.63-7.95,8.03-7.95,2.22,0,4.22.9,5.68,2.35,1.45,1.45,2.36,3.46,2.36,5.68Z"/>
      </g>
    </g>
  </g>
</svg>