<?xml version="1.0" encoding="UTF-8"?>
<svg id="Layer_2" data-name="Layer 2" xmlns="http://www.w3.org/2000/svg" xmlns:xlink="http://www.w3.org/1999/xlink" viewBox="0 0 881.38 788.74">
  <defs>
    <style>
      .cls-1 {
        fill: url(#linear-gradient-4);
      }

      .cls-2 {
        fill: url(#linear-gradient-3);
      }

      .cls-3 {
        fill: url(#linear-gradient-2);
      }

      .cls-4 {
        fill: url(#linear-gradient);
      }
    </style>
    <linearGradient id="linear-gradient" x1="444.06" y1="661.54" x2="444.9" y2="661.54" gradientUnits="userSpaceOnUse">
      <stop offset="0" stop-color="#ff6838"/>
      <stop offset=".5" stop-color="#d1023c"/>
      <stop offset="1" stop-color="#8482ff"/>
    </linearGradient>
    <linearGradient id="linear-gradient-2" x1="8.2" y1="-63.09" x2="922.82" y2="851.53" xlink:href="#linear-gradient"/>
    <linearGradient id="linear-gradient-3" x1="-3.23" y1="-51.66" x2="911.39" y2="862.96" xlink:href="#linear-gradient"/>
    <linearGradient id="linear-gradient-4" x1="19.37" y1="-74.26" x2="933.99" y2="840.36" xlink:href="#linear-gradient"/>
  </defs>
  <g id="Layer_1-2" data-name="Layer 1">
    <g>
      <polygon class="cls-4" points="444.9 661.96 444.06 661.96 444.06 661.13 444.9 661.96"/>
      <g>
        <path class="cls-3" d="M773.59,438.93v1.7h-.06c-.55,106.64-51.44,201.57-130.11,262.11l-.61.49c-.73.55-2,1.46-3.28,2.43l-43.61-43.55-15.89-15.89,3.88-2.37c64.36-45.07,106.58-119.74,106.82-204.06-.42-137.51-112.46-249.25-250.1-249.25s-247.43,109.55-250.04,245.24h-82.8c2.61-181.37,150.86-328.05,332.84-328.05s331.99,148.43,332.9,331.2h.06Z"/>
        <path class="cls-2" d="M686.91,788.74h-119.01l-126.79-126.79v-83.59c76.73,0,139.23-62.24,139.61-138.96-.38-76.65-62.88-138.93-139.61-138.93s-137.26,60.3-139.57,135.28h-84.46c2.31-121.56,101.91-219.71,224.03-219.71s223.27,99.75,224.07,222.63v1.48c-.49,77.71-40.77,146.21-101.45,186.03-8.04,5.27-16.38,10.05-25.11,14.26l35.99,35.99,3.45,3.45,108.85,108.85Z"/>
        <path class="cls-1" d="M881.38,440.33v.3c-.12,136.85-62.9,259.26-161.11,340.06-2,1.64-3.15,2.67-3.15,2.67l-59.08-59.08c1.64-1.15,3.34-2.49,3.34-2.49,83.47-65.45,137.15-167.24,137.21-281.34-.12-197.26-160.63-357.65-357.95-357.65S85.41,240.64,82.8,435.78H0C2.61,195.02,199.27,0,440.63,0c121.5,0,231.6,49.32,311.42,129.02,79.77,79.77,129.2,189.86,129.33,311.3Z"/>
      </g>
    </g>
  </g>
</svg>